# xmcd CD database file
#
# Track frame offsets:
#	150
#	24827
#	55049
#	86024
#	129681
#	167937
#	188646
#	227611
#	270534
#
# Disc length: 4434 seconds
#
# Revision: 0
# Processed by: cddbd v1.5.2PL0 Copyright (c) Steve Scherf et al.
# Submitted via: CDex 1.51
#
DISCID=6c115009
DTITLE=Robert Carty  - Oceanic Space
DYEAR=2005
DGENRE=New Age
TTITLE0=Immersion
TTITLE1=Floating Deep
TTITLE2=The Swirling Light
TTITLE3=Oceanic Space Joy
TTITLE4=Universal Drift
TTITLE5=Infinite Waves
TTITLE6=Splashing Life
TTITLE7=Oceanic Space Part One
TTITLE8=Oceanic Space Part Two
EXTD=YEAR: 2005
EXTT0=
EXTT1=
EXTT2=
EXTT3=
EXTT4=
EXTT5=
EXTT6=
EXTT7=
EXTT8=
PLAYORDER=
